<svg width="1440" height="1024" viewBox="0 0 1440 1024" fill="none" xmlns="http://www.w3.org/2000/svg">
<rect width="1440" height="1024" fill="#FFFBFB"/>
<g id="Desktop - 1">
<rect width="1440" height="1024" fill="black"/>
<g id="Frame">
<rect width="157" height="23" transform="translate(641 489)" fill="black"/>
</g>
<path id="Digital" d="M321.455 525H287.045V431.909H321.409C330.894 431.909 339.061 433.773 345.909 437.5C352.788 441.197 358.091 446.53 361.818 453.5C365.545 460.439 367.409 468.742 367.409 478.409C367.409 488.106 365.545 496.439 361.818 503.409C358.121 510.379 352.833 515.727 345.955 519.455C339.076 523.152 330.909 525 321.455 525ZM309.545 505.818H320.591C325.803 505.818 330.212 504.939 333.818 503.182C337.455 501.394 340.197 498.5 342.045 494.5C343.924 490.47 344.864 485.106 344.864 478.409C344.864 471.712 343.924 466.379 342.045 462.409C340.167 458.409 337.394 455.53 333.727 453.773C330.091 451.985 325.606 451.091 320.273 451.091H309.545V505.818ZM380.545 525V455.182H402.773V525H380.545ZM391.682 447.045C388.561 447.045 385.879 446.015 383.636 443.955C381.394 441.864 380.273 439.348 380.273 436.409C380.273 433.5 381.394 431.015 383.636 428.955C385.879 426.864 388.561 425.818 391.682 425.818C394.833 425.818 397.515 426.864 399.727 428.955C401.97 431.015 403.091 433.5 403.091 436.409C403.091 439.348 401.97 441.864 399.727 443.955C397.515 446.015 394.833 447.045 391.682 447.045ZM449.466 552.636C442.83 552.636 437.148 551.712 432.42 549.864C427.693 548.015 423.981 545.485 421.284 542.273C418.587 539.061 416.966 535.424 416.42 531.364L437.466 530.182C437.86 531.606 438.587 532.848 439.648 533.909C440.739 534.97 442.148 535.788 443.875 536.364C445.633 536.939 447.693 537.227 450.057 537.227C453.784 537.227 456.86 536.318 459.284 534.5C461.739 532.712 462.966 529.576 462.966 525.091V512.818H462.193C461.314 514.97 459.981 516.894 458.193 518.591C456.405 520.288 454.178 521.621 451.511 522.591C448.875 523.561 445.845 524.045 442.42 524.045C437.33 524.045 432.663 522.864 428.42 520.5C424.208 518.106 420.83 514.409 418.284 509.409C415.769 504.379 414.511 497.909 414.511 490C414.511 481.848 415.814 475.136 418.42 469.864C421.027 464.561 424.436 460.636 428.648 458.091C432.89 455.545 437.451 454.273 442.33 454.273C445.996 454.273 449.133 454.909 451.739 456.182C454.375 457.424 456.542 459.03 458.239 461C459.936 462.97 461.223 465.015 462.102 467.136H462.739V455.182H484.875V525.273C484.875 531.182 483.39 536.167 480.42 540.227C477.451 544.288 473.299 547.364 467.966 549.455C462.633 551.576 456.466 552.636 449.466 552.636ZM450.148 507.864C452.845 507.864 455.148 507.152 457.057 505.727C458.966 504.303 460.436 502.258 461.466 499.591C462.496 496.924 463.011 493.727 463.011 490C463.011 486.212 462.496 482.955 461.466 480.227C460.466 477.47 458.996 475.348 457.057 473.864C455.148 472.379 452.845 471.636 450.148 471.636C447.39 471.636 445.057 472.394 443.148 473.909C441.239 475.424 439.784 477.561 438.784 480.318C437.814 483.045 437.33 486.273 437.33 490C437.33 493.727 437.83 496.924 438.83 499.591C439.83 502.258 441.269 504.303 443.148 505.727C445.057 507.152 447.39 507.864 450.148 507.864ZM499.045 525V455.182H521.273V525H499.045ZM510.182 447.045C507.061 447.045 504.379 446.015 502.136 443.955C499.894 441.864 498.773 439.348 498.773 436.409C498.773 433.5 499.894 431.015 502.136 428.955C504.379 426.864 507.061 425.818 510.182 425.818C513.333 425.818 516.015 426.864 518.227 428.955C520.47 431.015 521.591 433.5 521.591 436.409C521.591 439.348 520.47 441.864 518.227 443.955C516.015 446.015 513.333 447.045 510.182 447.045ZM574.83 455.182V471.545H530.784V455.182H574.83ZM540.011 438.455H562.239V503.045C562.239 504.409 562.451 505.515 562.875 506.364C563.33 507.182 563.981 507.773 564.83 508.136C565.678 508.47 566.693 508.636 567.875 508.636C568.723 508.636 569.617 508.561 570.557 508.409C571.527 508.227 572.254 508.076 572.739 507.955L576.102 524C575.042 524.303 573.542 524.682 571.602 525.136C569.693 525.591 567.405 525.879 564.739 526C559.527 526.242 555.057 525.636 551.33 524.182C547.633 522.697 544.799 520.394 542.83 517.273C540.89 514.152 539.951 510.227 540.011 505.5V438.455ZM605.852 526.182C601.398 526.182 597.443 525.439 593.989 523.955C590.564 522.439 587.852 520.167 585.852 517.136C583.883 514.076 582.898 510.242 582.898 505.636C582.898 501.758 583.58 498.485 584.943 495.818C586.307 493.152 588.186 490.985 590.58 489.318C592.973 487.652 595.731 486.394 598.852 485.545C601.973 484.667 605.307 484.076 608.852 483.773C612.822 483.409 616.019 483.03 618.443 482.636C620.867 482.212 622.625 481.621 623.716 480.864C624.837 480.076 625.398 478.97 625.398 477.545V477.318C625.398 474.985 624.595 473.182 622.989 471.909C621.383 470.636 619.216 470 616.489 470C613.549 470 611.186 470.636 609.398 471.909C607.61 473.182 606.473 474.939 605.989 477.182L585.489 476.455C586.095 472.212 587.655 468.424 590.17 465.091C592.716 461.727 596.201 459.091 600.625 457.182C605.08 455.242 610.428 454.273 616.67 454.273C621.125 454.273 625.231 454.803 628.989 455.864C632.746 456.894 636.019 458.409 638.807 460.409C641.595 462.379 643.746 464.803 645.261 467.682C646.807 470.561 647.58 473.848 647.58 477.545V525H626.67V515.273H626.125C624.883 517.636 623.292 519.636 621.352 521.273C619.443 522.909 617.186 524.136 614.58 524.955C612.004 525.773 609.095 526.182 605.852 526.182ZM612.716 511.636C615.11 511.636 617.261 511.152 619.17 510.182C621.11 509.212 622.655 507.879 623.807 506.182C624.958 504.455 625.534 502.455 625.534 500.182V493.545C624.898 493.879 624.125 494.182 623.216 494.455C622.337 494.727 621.367 494.985 620.307 495.227C619.246 495.47 618.155 495.682 617.034 495.864C615.913 496.045 614.837 496.212 613.807 496.364C611.716 496.697 609.928 497.212 608.443 497.909C606.989 498.606 605.867 499.515 605.08 500.636C604.322 501.727 603.943 503.03 603.943 504.545C603.943 506.848 604.761 508.606 606.398 509.818C608.064 511.03 610.17 511.636 612.716 511.636ZM683.398 431.909V525H661.17V431.909H683.398Z" fill="white"/>
<path id="Startups" d="M753.182 455.182C752.636 450.576 750.424 447 746.545 444.455C742.667 441.909 737.909 440.636 732.273 440.636C728.152 440.636 724.545 441.303 721.455 442.636C718.394 443.97 716 445.803 714.273 448.136C712.576 450.47 711.727 453.121 711.727 456.091C711.727 458.576 712.318 460.712 713.5 462.5C714.712 464.258 716.258 465.727 718.136 466.909C720.015 468.061 721.985 469.015 724.045 469.773C726.106 470.5 728 471.091 729.727 471.545L739.182 474.091C741.606 474.727 744.303 475.606 747.273 476.727C750.273 477.848 753.136 479.379 755.864 481.318C758.621 483.227 760.894 485.682 762.682 488.682C764.47 491.682 765.364 495.364 765.364 499.727C765.364 504.758 764.045 509.303 761.409 513.364C758.803 517.424 754.985 520.652 749.955 523.045C744.955 525.439 738.879 526.636 731.727 526.636C725.061 526.636 719.288 525.561 714.409 523.409C709.561 521.258 705.742 518.258 702.955 514.409C700.197 510.561 698.636 506.091 698.273 501H709.909C710.212 504.515 711.394 507.424 713.455 509.727C715.545 512 718.182 513.697 721.364 514.818C724.576 515.909 728.03 516.455 731.727 516.455C736.03 516.455 739.894 515.758 743.318 514.364C746.742 512.939 749.455 510.97 751.455 508.455C753.455 505.909 754.455 502.939 754.455 499.545C754.455 496.455 753.591 493.939 751.864 492C750.136 490.061 747.864 488.485 745.045 487.273C742.227 486.061 739.182 485 735.909 484.091L724.455 480.818C717.182 478.727 711.424 475.742 707.182 471.864C702.939 467.985 700.818 462.909 700.818 456.636C700.818 451.424 702.227 446.879 705.045 443C707.894 439.091 711.712 436.061 716.5 433.909C721.318 431.727 726.697 430.636 732.636 430.636C738.636 430.636 743.97 431.712 748.636 433.864C753.303 435.985 757 438.894 759.727 442.591C762.485 446.288 763.939 450.485 764.091 455.182H753.182ZM812.807 455.182V464.273H776.625V455.182H812.807ZM787.17 438.455H797.898V505C797.898 508.03 798.337 510.303 799.216 511.818C800.125 513.303 801.277 514.303 802.67 514.818C804.095 515.303 805.595 515.545 807.17 515.545C808.352 515.545 809.322 515.485 810.08 515.364C810.837 515.212 811.443 515.091 811.898 515L814.08 524.636C813.352 524.909 812.337 525.182 811.034 525.455C809.731 525.758 808.08 525.909 806.08 525.909C803.049 525.909 800.08 525.258 797.17 523.955C794.292 522.652 791.898 520.667 789.989 518C788.11 515.333 787.17 511.97 787.17 507.909V438.455ZM849.489 526.636C845.064 526.636 841.049 525.803 837.443 524.136C833.837 522.439 830.973 520 828.852 516.818C826.731 513.606 825.67 509.727 825.67 505.182C825.67 501.182 826.458 497.939 828.034 495.455C829.61 492.939 831.716 490.97 834.352 489.545C836.989 488.121 839.898 487.061 843.08 486.364C846.292 485.636 849.519 485.061 852.761 484.636C857.004 484.091 860.443 483.682 863.08 483.409C865.746 483.106 867.686 482.606 868.898 481.909C870.14 481.212 870.761 480 870.761 478.273V477.909C870.761 473.424 869.534 469.939 867.08 467.455C864.655 464.97 860.973 463.727 856.034 463.727C850.913 463.727 846.898 464.848 843.989 467.091C841.08 469.333 839.034 471.727 837.852 474.273L827.67 470.636C829.489 466.394 831.913 463.091 834.943 460.727C838.004 458.333 841.337 456.667 844.943 455.727C848.58 454.758 852.155 454.273 855.67 454.273C857.913 454.273 860.489 454.545 863.398 455.091C866.337 455.606 869.17 456.682 871.898 458.318C874.655 459.955 876.943 462.424 878.761 465.727C880.58 469.03 881.489 473.455 881.489 479V525H870.761V515.545H870.216C869.489 517.061 868.277 518.682 866.58 520.409C864.883 522.136 862.625 523.606 859.807 524.818C856.989 526.03 853.549 526.636 849.489 526.636ZM851.125 517C855.367 517 858.943 516.167 861.852 514.5C864.792 512.833 867.004 510.682 868.489 508.045C870.004 505.409 870.761 502.636 870.761 499.727V489.909C870.307 490.455 869.307 490.955 867.761 491.409C866.246 491.833 864.489 492.212 862.489 492.545C860.519 492.848 858.595 493.121 856.716 493.364C854.867 493.576 853.367 493.758 852.216 493.909C849.428 494.273 846.822 494.864 844.398 495.682C842.004 496.47 840.064 497.667 838.58 499.273C837.125 500.848 836.398 503 836.398 505.727C836.398 509.455 837.777 512.273 840.534 514.182C843.322 516.061 846.852 517 851.125 517ZM901.068 525V455.182H911.432V465.727H912.159C913.432 462.273 915.735 459.47 919.068 457.318C922.402 455.167 926.159 454.091 930.341 454.091C931.129 454.091 932.114 454.106 933.295 454.136C934.477 454.167 935.371 454.212 935.977 454.273V465.182C935.614 465.091 934.78 464.955 933.477 464.773C932.205 464.561 930.856 464.455 929.432 464.455C926.038 464.455 923.008 465.167 920.341 466.591C917.705 467.985 915.614 469.924 914.068 472.409C912.553 474.864 911.795 477.667 911.795 480.818V525H901.068ZM983.432 455.182V464.273H947.25V455.182H983.432ZM957.795 438.455H968.523V505C968.523 508.03 968.962 510.303 969.841 511.818C970.75 513.303 971.902 514.303 973.295 514.818C974.72 515.303 976.22 515.545 977.795 515.545C978.977 515.545 979.947 515.485 980.705 515.364C981.462 515.212 982.068 515.091 982.523 515L984.705 524.636C983.977 524.909 982.962 525.182 981.659 525.455C980.356 525.758 978.705 525.909 976.705 525.909C973.674 525.909 970.705 525.258 967.795 523.955C964.917 522.652 962.523 520.667 960.614 518C958.735 515.333 957.795 511.97 957.795 507.909V438.455ZM1043.57 496.455V455.182H1054.3V525H1043.57V513.182H1042.84C1041.2 516.727 1038.66 519.742 1035.2 522.227C1031.75 524.682 1027.39 525.909 1022.11 525.909C1017.75 525.909 1013.87 524.955 1010.48 523.045C1007.08 521.106 1004.42 518.197 1002.48 514.318C1000.54 510.409 999.568 505.485 999.568 499.545V455.182H1010.3V498.818C1010.3 503.909 1011.72 507.97 1014.57 511C1017.45 514.03 1021.11 515.545 1025.57 515.545C1028.23 515.545 1030.95 514.864 1033.7 513.5C1036.49 512.136 1038.83 510.045 1040.7 507.227C1042.61 504.409 1043.57 500.818 1043.57 496.455ZM1073.94 551.182V455.182H1084.31V466.273H1085.58C1086.37 465.061 1087.46 463.515 1088.85 461.636C1090.28 459.727 1092.31 458.03 1094.94 456.545C1097.61 455.03 1101.22 454.273 1105.76 454.273C1111.64 454.273 1116.82 455.742 1121.31 458.682C1125.79 461.621 1129.29 465.788 1131.81 471.182C1134.32 476.576 1135.58 482.939 1135.58 490.273C1135.58 497.667 1134.32 504.076 1131.81 509.5C1129.29 514.894 1125.81 519.076 1121.35 522.045C1116.9 524.985 1111.76 526.455 1105.94 526.455C1101.46 526.455 1097.87 525.712 1095.17 524.227C1092.47 522.712 1090.4 521 1088.94 519.091C1087.49 517.152 1086.37 515.545 1085.58 514.273H1084.67V551.182H1073.94ZM1084.49 490.091C1084.49 495.364 1085.26 500.015 1086.81 504.045C1088.35 508.045 1090.61 511.182 1093.58 513.455C1096.55 515.697 1100.19 516.818 1104.49 516.818C1108.97 516.818 1112.72 515.636 1115.72 513.273C1118.75 510.879 1121.02 507.667 1122.53 503.636C1124.08 499.576 1124.85 495.061 1124.85 490.091C1124.85 485.182 1124.09 480.758 1122.58 476.818C1121.09 472.848 1118.84 469.712 1115.81 467.409C1112.81 465.076 1109.03 463.909 1104.49 463.909C1100.13 463.909 1096.46 465.015 1093.49 467.227C1090.52 469.409 1088.28 472.47 1086.76 476.409C1085.25 480.318 1084.49 484.879 1084.49 490.091ZM1201.4 470.818L1191.76 473.545C1191.16 471.939 1190.26 470.379 1189.08 468.864C1187.93 467.318 1186.35 466.045 1184.35 465.045C1182.35 464.045 1179.79 463.545 1176.67 463.545C1172.4 463.545 1168.84 464.53 1165.99 466.5C1163.17 468.439 1161.76 470.909 1161.76 473.909C1161.76 476.576 1162.73 478.682 1164.67 480.227C1166.61 481.773 1169.64 483.061 1173.76 484.091L1184.12 486.636C1190.37 488.152 1195.02 490.47 1198.08 493.591C1201.14 496.682 1202.67 500.667 1202.67 505.545C1202.67 509.545 1201.52 513.121 1199.22 516.273C1196.94 519.424 1193.76 521.909 1189.67 523.727C1185.58 525.545 1180.82 526.455 1175.4 526.455C1168.28 526.455 1162.38 524.909 1157.72 521.818C1153.05 518.727 1150.09 514.212 1148.85 508.273L1159.03 505.727C1160 509.485 1161.84 512.303 1164.53 514.182C1167.26 516.061 1170.82 517 1175.22 517C1180.22 517 1184.19 515.939 1187.12 513.818C1190.09 511.667 1191.58 509.091 1191.58 506.091C1191.58 503.667 1190.73 501.636 1189.03 500C1187.34 498.333 1184.73 497.091 1181.22 496.273L1169.58 493.545C1163.19 492.03 1158.49 489.682 1155.49 486.5C1152.52 483.288 1151.03 479.273 1151.03 474.455C1151.03 470.515 1152.14 467.03 1154.35 464C1156.59 460.97 1159.64 458.591 1163.49 456.864C1167.37 455.136 1171.76 454.273 1176.67 454.273C1183.58 454.273 1189 455.788 1192.94 458.818C1196.91 461.848 1199.73 465.848 1201.4 470.818Z" fill="white"/>
<line id="Line 1" x1="279.979" y1="586.5" x2="517.979" y2="584.5" stroke="white" stroke-width="5"/>
</g>
</svg>
