<svg width="1440" height="1024" viewBox="0 0 1440 1024" fill="none" xmlns="http://www.w3.org/2000/svg">
<rect width="1440" height="1024" fill="#FFFBFB"/>
<g id="Desktop - 1">
<rect width="1440" height="1024" fill="black"/>
<g id="Frame">
<rect width="157" height="23" transform="translate(641 489)" fill="black"/>
</g>
<path id="Vector" d="M284.102 559.746H246V407.313H283.715C293.901 407.313 302.701 410.365 310.115 416.468C317.562 422.522 323.299 431.255 327.329 442.668C331.39 454.031 333.422 467.651 333.422 483.53C333.422 499.409 331.407 513.054 327.377 524.467C323.348 535.83 317.643 544.562 310.261 550.666C302.879 556.72 294.159 559.746 284.102 559.746ZM272.884 524.615H283.135C288.035 524.615 292.209 523.4 295.658 520.968C299.139 518.537 301.783 514.344 303.588 508.39C305.425 502.435 306.344 494.149 306.344 483.53C306.344 472.911 305.409 464.625 303.54 458.67C301.702 452.716 298.994 448.523 295.416 446.092C291.87 443.66 287.519 442.444 282.361 442.444H272.884V524.615ZM346.247 559.746V445.422H372.937V559.746H346.247ZM359.592 433.513C355.982 433.513 352.887 431.677 350.309 428.005C347.73 424.333 346.441 419.917 346.441 414.756C346.441 409.596 347.73 405.18 350.309 401.508C352.887 397.836 355.982 396 359.592 396C363.235 396 366.329 397.836 368.876 401.508C371.455 405.18 372.744 409.596 372.744 414.756C372.744 419.917 371.455 424.333 368.876 428.005C366.329 431.677 363.235 433.513 359.592 433.513ZM422.317 605C414.871 605 408.489 603.362 403.17 600.088C397.883 596.862 393.774 592.397 390.84 586.69C387.939 581.034 386.311 574.533 385.956 567.189H411.68C411.938 569.621 412.583 571.581 413.614 573.069C414.645 574.558 415.967 575.625 417.579 576.27C419.223 576.965 421.06 577.312 423.091 577.312C426.54 577.312 429.393 576.022 431.649 573.442C433.938 570.862 435.082 566.197 435.082 559.448V540.097H434.309C433.342 543.967 431.859 547.267 429.861 549.996C427.862 552.675 425.46 554.735 422.656 556.174C419.852 557.563 416.773 558.257 413.421 558.257C408.134 558.257 403.267 556.372 398.819 552.601C394.402 548.83 390.856 542.851 388.181 534.664C385.537 526.476 384.216 515.783 384.216 502.584C384.216 488.79 385.602 477.575 388.374 468.942C391.179 460.308 394.789 453.981 399.205 449.962C403.653 445.943 408.327 443.933 413.227 443.933C416.902 443.933 420.126 444.925 422.898 446.91C425.67 448.845 427.991 451.45 429.861 454.725C431.73 457.951 433.148 461.499 434.116 465.369H434.696V445.422H461.386V559.448C461.386 569.125 459.759 577.337 456.503 584.085C453.279 590.883 448.734 596.068 442.867 599.641C437 603.214 430.151 605 422.317 605ZM423.285 529.081C425.734 529.081 427.83 528.039 429.57 525.955C431.344 523.822 432.697 520.795 433.632 516.875C434.599 512.905 435.082 508.141 435.082 502.584C435.082 496.927 434.599 492.089 433.632 488.071C432.697 484.001 431.344 480.9 429.57 478.766C427.83 476.583 425.734 475.491 423.285 475.491C420.834 475.491 418.739 476.583 416.999 478.766C415.29 480.9 413.969 484.001 413.034 488.071C412.131 492.089 411.68 496.927 411.68 502.584C411.68 508.24 412.131 513.054 413.034 517.023C413.969 520.944 415.29 523.946 416.999 526.029C418.739 528.064 420.834 529.081 423.285 529.081ZM474.961 559.746V445.422H501.652V559.746H474.961ZM488.306 433.513C484.696 433.513 481.602 431.677 479.023 428.005C476.444 424.333 475.155 419.917 475.155 414.756C475.155 409.596 476.444 405.18 479.023 401.508C481.602 397.836 484.696 396 488.306 396C491.949 396 495.044 397.836 497.59 401.508C500.169 405.18 501.458 409.596 501.458 414.756C501.458 419.917 500.169 424.333 497.59 428.005C495.044 431.677 491.949 433.513 488.306 433.513ZM559.542 445.422V475.194H510.61V445.422H559.542ZM520.086 418.031H546.777V522.978C546.777 524.566 546.955 525.905 547.309 526.997C547.663 528.039 548.212 528.833 548.953 529.379C549.695 529.875 550.645 530.123 551.806 530.123C552.612 530.123 553.547 529.974 554.61 529.677C555.706 529.379 556.512 529.131 557.028 528.932L560.896 557.811C559.703 558.357 557.995 559.027 555.77 559.821C553.579 560.614 550.968 561.135 547.937 561.384C541.813 561.88 536.671 560.913 532.513 558.481C528.354 556 525.228 552.105 523.133 546.795C521.038 541.486 520.022 534.837 520.086 526.849V418.031ZM591.128 561.533C586.39 561.533 582.199 560.342 578.557 557.96C574.946 555.529 572.11 551.857 570.047 546.944C567.983 542.032 566.952 535.78 566.952 528.188C566.952 521.935 567.646 516.602 569.031 512.185C570.418 507.72 572.352 504.072 574.834 501.245C577.316 498.416 580.201 496.257 583.488 494.769C586.809 493.28 590.387 492.313 594.223 491.866C598.381 491.37 601.718 490.774 604.232 490.08C606.779 489.336 608.616 488.318 609.744 487.028C610.872 485.689 611.437 483.927 611.437 481.744V481.446C611.437 478.469 610.695 476.186 609.212 474.598C607.729 473.01 605.827 472.217 603.507 472.217C600.96 472.217 598.881 473.085 597.269 474.822C595.69 476.509 594.739 479.114 594.417 482.637H569.853C570.176 475.69 571.61 469.289 574.156 463.434C576.735 457.529 580.491 452.815 585.423 449.292C590.355 445.719 596.512 443.933 603.893 443.933C609.212 443.933 613.983 444.901 618.206 446.836C622.429 448.721 626.023 451.376 628.988 454.8C631.954 458.174 634.211 462.144 635.758 466.709C637.338 471.224 638.127 476.137 638.127 481.446V559.746H613.177V543.67H612.597C611.114 547.937 609.309 551.385 607.182 554.015C605.086 556.645 602.685 558.556 599.977 559.746C597.301 560.937 594.352 561.533 591.128 561.533ZM599.832 535.631C601.863 535.631 603.765 534.986 605.537 533.696C607.343 532.406 608.809 530.545 609.938 528.114C611.066 525.682 611.63 522.73 611.63 519.256V509.729C610.921 510.176 610.163 510.597 609.357 510.995C608.584 511.392 607.745 511.763 606.843 512.111C605.973 512.459 605.038 512.781 604.039 513.079C603.071 513.376 602.056 513.65 600.993 513.897C598.929 514.394 597.237 515.212 595.916 516.354C594.626 517.445 593.659 518.81 593.014 520.447C592.402 522.035 592.096 523.822 592.096 525.806C592.096 528.982 592.821 531.413 594.271 533.1C595.722 534.787 597.576 535.631 599.832 535.631ZM677.571 407.313V559.746H650.88V407.313H677.571ZM747.452 471.026L737.202 475.491C736.557 472.862 735.606 470.306 734.348 467.825C733.124 465.295 731.448 463.21 729.32 461.573C727.193 459.936 724.469 459.117 721.148 459.117C716.604 459.117 712.816 460.729 709.786 463.955C706.788 467.13 705.289 471.174 705.289 476.087C705.289 480.453 706.32 483.902 708.383 486.433C710.447 488.963 713.67 491.072 718.054 492.759L729.078 496.928C735.719 499.409 740.667 503.204 743.922 508.316C747.178 513.376 748.806 519.901 748.806 527.89C748.806 534.44 747.581 540.295 745.131 545.456C742.714 550.617 739.329 554.686 734.977 557.663C730.626 560.64 725.565 562.128 719.795 562.128C712.219 562.128 705.95 559.598 700.985 554.536C696.021 549.475 692.878 542.081 691.557 532.356L702.388 528.188C703.419 534.341 705.37 538.956 708.238 542.032C711.139 545.108 714.927 546.647 719.601 546.647C724.92 546.647 729.143 544.91 732.27 541.436C735.428 537.913 737.008 533.696 737.008 528.783C737.008 524.814 736.105 521.49 734.3 518.81C732.495 516.081 729.723 514.046 725.984 512.707L713.606 508.24C706.804 505.759 701.807 501.914 698.616 496.704C695.457 491.444 693.878 484.869 693.878 476.98C693.878 470.529 695.054 464.823 697.407 459.861C699.793 454.899 703.033 451.004 707.126 448.176C711.252 445.347 715.926 443.933 721.148 443.933C728.498 443.933 734.268 446.414 738.459 451.376C742.681 456.338 745.679 462.888 747.452 471.026ZM798.283 445.422V460.308H759.794V445.422H798.283ZM771.012 418.031H782.423V526.997C782.423 531.959 782.89 535.681 783.826 538.162C784.792 540.593 786.018 542.231 787.5 543.074C789.015 543.868 790.611 544.265 792.287 544.265C793.544 544.265 794.576 544.166 795.382 543.967C796.188 543.719 796.833 543.521 797.316 543.371L799.637 559.151C798.863 559.598 797.783 560.045 796.397 560.491C795.011 560.987 793.254 561.236 791.127 561.236C787.903 561.236 784.744 560.168 781.649 558.034C778.587 555.901 776.041 552.651 774.01 548.284C772.011 543.917 771.012 538.41 771.012 531.761V418.031ZM837.303 562.426C832.597 562.426 828.326 561.061 824.49 558.333C820.654 555.554 817.608 551.559 815.351 546.349C813.095 541.09 811.967 534.738 811.967 527.294C811.967 520.745 812.805 515.436 814.481 511.367C816.157 507.248 818.397 504.023 821.202 501.69C824.007 499.359 827.101 497.622 830.486 496.481C833.902 495.29 837.335 494.347 840.785 493.652C845.298 492.759 848.956 492.089 851.761 491.643C854.598 491.147 856.66 490.327 857.95 489.186C859.272 488.046 859.933 486.06 859.933 483.232V482.637C859.933 475.293 858.627 469.587 856.016 465.518C853.437 461.449 849.521 459.415 844.266 459.415C838.818 459.415 834.547 461.25 831.453 464.922C828.358 468.594 826.182 472.514 824.925 476.682L814.094 470.728C816.028 463.781 818.607 458.372 821.83 454.502C825.087 450.582 828.632 447.853 832.468 446.315C836.337 444.727 840.14 443.933 843.879 443.933C846.265 443.933 849.004 444.38 852.099 445.273C855.226 446.116 858.24 447.878 861.141 450.557C864.074 453.237 866.508 457.281 868.445 462.689C870.376 468.098 871.342 475.343 871.342 484.424V559.746H859.933V544.265H859.352C858.578 546.746 857.289 549.401 855.484 552.229C853.678 555.057 851.277 557.464 848.28 559.448C845.282 561.434 841.623 562.426 837.303 562.426ZM839.044 546.647C843.557 546.647 847.361 545.282 850.455 542.553C853.582 539.824 855.935 536.301 857.515 531.984C859.127 527.667 859.933 523.126 859.933 518.363V502.286C859.449 503.179 858.385 503.998 856.741 504.743C855.129 505.437 853.26 506.058 851.132 506.604C849.037 507.1 846.99 507.546 844.991 507.943C843.025 508.291 841.43 508.588 840.205 508.836C837.239 509.431 834.467 510.399 831.888 511.739C829.342 513.03 827.278 514.989 825.699 517.619C824.151 520.2 823.378 523.722 823.378 528.188C823.378 534.291 824.845 538.906 827.778 542.032C830.743 545.108 834.499 546.647 839.044 546.647ZM892.174 559.746V445.422H903.197V462.689H903.971C905.326 457.033 907.771 452.443 911.317 448.92C914.864 445.397 918.862 443.635 923.312 443.635C924.147 443.635 925.193 443.66 926.456 443.71C927.712 443.759 928.659 443.834 929.309 443.933V461.796C928.919 461.647 928.034 461.424 926.648 461.126C925.292 460.779 923.856 460.605 922.346 460.605C918.732 460.605 915.507 461.772 912.673 464.104C909.869 466.386 907.647 469.562 906.001 473.631C904.392 477.65 903.581 482.24 903.581 487.4V559.746H892.174ZM979.788 445.422V460.308H941.297V445.422H979.788ZM952.518 418.031H963.925V526.997C963.925 531.959 964.395 535.681 965.33 538.162C966.295 540.593 967.521 542.231 969.006 543.074C970.516 543.868 972.113 544.265 973.79 544.265C975.047 544.265 976.08 544.166 976.885 543.967C977.689 543.719 978.333 543.521 978.822 543.371L981.143 559.151C980.369 559.598 979.286 560.045 977.9 560.491C976.514 560.987 974.756 561.236 972.633 561.236C969.408 561.236 966.246 560.168 963.151 558.034C960.094 555.901 957.544 552.651 955.514 548.284C953.515 543.917 952.518 538.41 952.518 531.761V418.031ZM1043.76 513.004V445.422H1055.16V559.746H1043.76V540.394H1042.98C1041.24 546.2 1038.53 551.138 1034.86 555.206C1031.18 559.225 1026.54 561.236 1020.93 561.236C1016.29 561.236 1012.17 559.672 1008.55 556.546C1004.95 553.37 1002.11 548.606 1000.04 542.256C997.984 535.854 996.95 527.791 996.95 518.066V445.422H1008.36V516.875C1008.36 525.211 1009.88 531.86 1012.91 536.822C1015.97 541.784 1019.87 544.265 1024.61 544.265C1027.44 544.265 1030.33 543.148 1033.26 540.915C1036.23 538.683 1038.71 535.259 1040.71 530.644C1042.74 526.029 1043.76 520.149 1043.76 513.004ZM1076.07 602.618V445.422H1087.09V463.583H1088.44C1089.29 461.598 1090.44 459.067 1091.93 455.991C1093.44 452.865 1095.6 450.086 1098.41 447.655C1101.24 445.174 1105.08 443.933 1109.91 443.933C1116.17 443.933 1121.68 446.34 1126.45 451.153C1131.22 455.966 1134.94 462.789 1137.62 471.621C1140.3 480.453 1141.63 490.873 1141.63 502.882C1141.63 514.989 1140.3 525.483 1137.62 534.365C1134.94 543.198 1131.24 550.046 1126.5 554.909C1121.76 559.722 1116.29 562.128 1110.11 562.128C1105.34 562.128 1101.52 560.913 1098.65 558.481C1095.78 556 1093.57 553.197 1092.03 550.071C1090.48 546.894 1089.29 544.265 1088.44 542.18H1087.48V602.618H1076.07ZM1087.29 502.584C1087.29 511.217 1088.11 518.834 1089.75 525.434C1091.4 531.984 1093.8 537.12 1096.95 540.841C1100.12 544.513 1103.98 546.349 1108.56 546.349C1113.33 546.349 1117.32 544.414 1120.5 540.544C1123.73 536.623 1126.15 531.363 1127.76 524.764C1129.4 518.115 1130.22 510.722 1130.22 502.584C1130.22 494.545 1129.42 487.301 1127.81 480.85C1126.23 474.35 1123.83 469.215 1120.6 465.443C1117.41 461.623 1113.4 459.712 1108.56 459.712C1103.92 459.712 1100.02 461.523 1096.86 465.146C1093.7 468.718 1091.32 473.73 1089.71 480.181C1088.09 486.581 1087.29 494.05 1087.29 502.584ZM1211.65 471.026L1201.4 475.491C1200.75 472.862 1199.8 470.306 1198.55 467.825C1197.32 465.295 1195.65 463.21 1193.52 461.573C1191.39 459.936 1188.66 459.117 1185.35 459.117C1180.8 459.117 1177.01 460.729 1173.98 463.955C1170.98 467.13 1169.48 471.174 1169.48 476.087C1169.48 480.453 1170.52 483.902 1172.58 486.433C1174.65 488.963 1177.86 491.072 1182.25 492.759L1193.28 496.928C1199.92 499.409 1204.86 503.204 1208.12 508.316C1211.37 513.376 1213 519.901 1213 527.89C1213 534.44 1211.78 540.295 1209.33 545.456C1206.91 550.617 1203.52 554.686 1199.17 557.663C1194.82 560.64 1189.76 562.128 1183.99 562.128C1176.42 562.128 1170.15 559.598 1165.18 554.536C1160.22 549.475 1157.08 542.081 1155.75 532.356L1166.58 528.188C1167.62 534.341 1169.56 538.956 1172.44 542.032C1175.34 545.108 1179.12 546.647 1183.8 546.647C1189.12 546.647 1193.34 544.91 1196.47 541.436C1199.63 537.913 1201.2 533.696 1201.2 528.783C1201.2 524.814 1200.3 521.49 1198.5 518.81C1196.69 516.081 1193.92 514.046 1190.18 512.707L1177.8 508.24C1171 505.759 1166.01 501.914 1162.81 496.704C1159.66 491.444 1158.07 484.869 1158.07 476.98C1158.07 470.529 1159.25 464.823 1161.61 459.861C1163.99 454.899 1167.23 451.004 1171.32 448.176C1175.45 445.347 1180.12 443.933 1185.35 443.933C1192.69 443.933 1198.46 446.414 1202.66 451.376C1206.88 456.338 1209.87 462.888 1211.65 471.026Z" fill="white"/>
<path id="Arrow 1" d="M501.707 354.707C502.098 354.317 502.098 353.683 501.707 353.293L495.343 346.929C494.953 346.538 494.319 346.538 493.929 346.929C493.538 347.319 493.538 347.953 493.929 348.343L499.586 354L493.929 359.657C493.538 360.047 493.538 360.681 493.929 361.071C494.319 361.462 494.953 361.462 495.343 361.071L501.707 354.707ZM248 355H501V353H248V355Z" fill="white"/>
</g>
</svg>
